<?xml version="1.0" encoding="UTF-8" standalone="no"?>
<!-- Created with Inkscape (http://www.inkscape.org/) -->

<svg
   width="15.25mm"
   height="128.5mm"
   viewBox="0 0 15.25 128.5"
   version="1.1"
   id="svg1"
   sodipodi:docname="02-basic-oscillator.svg"
   inkscape:version="1.4 (e7c3feb1, 2024-10-09)"
   xmlns:inkscape="http://www.inkscape.org/namespaces/inkscape"
   xmlns:sodipodi="http://sodipodi.sourceforge.net/DTD/sodipodi-0.dtd"
   xmlns="http://www.w3.org/2000/svg"
   xmlns:svg="http://www.w3.org/2000/svg">
  <sodipodi:namedview
     id="namedview1"
     pagecolor="#ffffff"
     bordercolor="#000000"
     borderopacity="0.25"
     inkscape:showpageshadow="2"
     inkscape:pageopacity="0.0"
     inkscape:pagecheckerboard="0"
     inkscape:deskcolor="#d1d1d1"
     inkscape:document-units="mm"
     inkscape:zoom="1.357134"
     inkscape:cx="-116.79024"
     inkscape:cy="281.47552"
     inkscape:window-width="1728"
     inkscape:window-height="1051"
     inkscape:window-x="0"
     inkscape:window-y="38"
     inkscape:window-maximized="1"
     inkscape:current-layer="g4" />
  <defs
     id="defs1">
    <rect
       x="2.8327457"
       y="89.231489"
       width="50.281236"
       height="35.409321"
       id="rect3" />
  </defs>
  <g
     id="g4"
     inkscape:label="print">
    <rect
       style="fill:#1a1a1a;stroke:none;stroke-width:0.414318;stroke-linecap:round"
       id="rect4"
       width="15.25"
       height="128.5"
       x="0"
       y="-2.7755576e-17"
       inkscape:label="base" />
    <path
       style="fill:none;stroke:#f9f9f9;stroke-width:0.2;stroke-linecap:round;stroke-dasharray:none;stroke-opacity:1"
       d="M 7.5,28.268823 V 94.164427"
       id="path5"
       sodipodi:nodetypes="cc" />
    <circle
       style="fill:none;stroke:#f9f9f9;stroke-width:0.2;stroke-linecap:round;stroke-dasharray:none;stroke-opacity:1"
       id="path4-1"
       cx="7.625"
       cy="104"
       r="5" />
    <circle
       style="fill:none;stroke:#f9f9f9;stroke-width:0.2;stroke-linecap:round;stroke-dasharray:none;stroke-opacity:1"
       id="path4"
       cx="7.625"
       cy="14.031329"
       r="5" />
    <path
       style="font-weight:bold;font-size:2.82222px;line-height:1;font-family:Futura;-inkscape-font-specification:'Futura Bold';fill:#f9f9f9;stroke-width:0.4;stroke-linecap:round"
       d="m 2.7643546,2.2591773 q -0.090311,-0.073378 -0.180622,-0.1072444 -0.090311,-0.036689 -0.1749777,-0.036689 -0.1072443,0 -0.1749776,0.0508 -0.067733,0.0508 -0.067733,0.1326444 0,0.056444 0.033867,0.093133 0.033867,0.036689 0.087489,0.064911 0.056444,0.0254 0.1241776,0.045155 0.070555,0.019756 0.1382888,0.042333 0.2709331,0.090311 0.3951108,0.2427109 0.1269999,0.1495777 0.1269999,0.3922886 0,0.1636888 -0.056444,0.2963331 Q 2.9619101,3.6081985 2.8546657,3.704154 2.7502435,3.7972872 2.5950214,3.8480872 2.4426216,3.9017094 2.2478884,3.9017094 1.8443109,3.9017094 1.5,3.6618207 L 1.7370665,3.2159099 q 0.1241777,0.1100666 0.2455332,0.1636888 0.1213554,0.053622 0.2398887,0.053622 0.1354666,0 0.2003776,-0.062089 0.067733,-0.062089 0.067733,-0.141111 0,-0.047978 -0.016933,-0.081844 Q 2.4567327,3.1114877 2.4172216,3.0832655 2.3777105,3.0522211 2.3127994,3.0268211 2.2507106,3.0014212 2.1603995,2.9703767 2.0531552,2.9365101 1.948733,2.896999 1.8471331,2.8546657 1.7652887,2.7869324 1.6862666,2.7191992 1.6354666,2.6175992 1.5874889,2.5131771 1.5874889,2.3551328 q 0,-0.1580444 0.0508,-0.2850443 0.053622,-0.1298221 0.1467555,-0.2201331 0.095956,-0.093133 0.231422,-0.1439333 0.1382888,-0.0508 0.307622,-0.0508 0.1580443,0 0.3301998,0.045155 0.1721554,0.042333 0.3301997,0.1269999 z m 1.117599,0.1354665 v 1.447799 H 3.3711318 V 2.3946438 Z M 3.3372651,1.8386665 q 0,-0.059267 0.022578,-0.1100666 0.022578,-0.053622 0.062089,-0.093133 0.039511,-0.039511 0.090311,-0.062089 Q 3.5658649,1.5508 3.6251316,1.5508 q 0.059267,0 0.1100666,0.022578 0.053622,0.022578 0.093133,0.062089 0.039511,0.039511 0.062089,0.093133 0.022578,0.0508 0.022578,0.1100666 0,0.059267 -0.022578,0.1128888 -0.022578,0.0508 -0.062089,0.090311 -0.039511,0.039511 -0.093133,0.062089 -0.0508,0.022578 -0.1100666,0.022578 -0.059267,0 -0.1128888,-0.022578 -0.0508,-0.022578 -0.090311,-0.062089 -0.039511,-0.039511 -0.062089,-0.090311 -0.022578,-0.053622 -0.022578,-0.1128888 z M 4.2319096,2.3946438 H 4.7427315 V 2.5724437 Q 4.9515757,2.3720661 5.21122,2.3720661 q 0.3217331,0 0.4910663,0.2709331 0.1721554,-0.2737553 0.4910663,-0.2737553 0.1015999,0 0.1919109,0.031044 0.090311,0.028222 0.1552221,0.093133 0.064911,0.062089 0.1016,0.1636888 0.039511,0.1015999 0.039511,0.2455332 V 3.8424428 H 6.1707748 V 3.1284211 q 0,-0.1100666 -0.016933,-0.1806221 -0.014111,-0.070555 -0.045156,-0.1100666 -0.028222,-0.039511 -0.067733,-0.053622 -0.039511,-0.014111 -0.084667,-0.014111 -0.2455332,0 -0.2455332,0.358422 V 3.8424428 H 5.1999311 V 3.1284211 q 0,-0.1100666 -0.014111,-0.1806221 -0.014111,-0.073378 -0.042333,-0.115711 -0.0254,-0.042333 -0.067733,-0.056444 -0.042333,-0.016933 -0.098778,-0.016933 -0.047978,0 -0.090311,0.014111 -0.042333,0.014111 -0.0762,0.056444 -0.031044,0.039511 -0.0508,0.1128888 -0.016933,0.070556 -0.016933,0.1862666 V 3.8424428 H 4.2319096 Z m 4.0047309,0.7281328 q 0,-0.067733 -0.0254,-0.1269999 -0.022578,-0.062089 -0.067733,-0.1072443 -0.045156,-0.045156 -0.1072444,-0.070555 -0.059267,-0.028222 -0.1298221,-0.028222 -0.067733,0 -0.1269999,0.0254 -0.059267,0.0254 -0.1044222,0.070555 -0.042333,0.045156 -0.070556,0.1072444 -0.0254,0.059267 -0.0254,0.1269999 0,0.067733 0.0254,0.1269999 0.0254,0.059267 0.070556,0.1044222 0.045155,0.042333 0.1044222,0.070555 0.062089,0.0254 0.1298221,0.0254 0.067733,0 0.1269999,-0.0254 0.059267,-0.0254 0.1015999,-0.070555 0.045155,-0.045156 0.070555,-0.1044222 0.028222,-0.059267 0.028222,-0.1241777 z M 7.5931743,4.5649311 H 7.0823525 V 2.3946438 h 0.5108218 v 0.1608666 q 0.1636888,-0.2060221 0.4459108,-0.2060221 0.1552221,0 0.2878665,0.062089 0.1354665,0.059267 0.2342442,0.1636887 0.098778,0.1044222 0.1523999,0.2455332 0.056444,0.141111 0.056444,0.3019775 0,0.1608666 -0.056444,0.2991554 -0.053622,0.1382887 -0.1523999,0.2427109 -0.095956,0.1044221 -0.2285998,0.1636888 -0.1326443,0.059267 -0.2878664,0.059267 -0.2709332,0 -0.4515553,-0.1862666 z M 9.5715512,1.5000001 V 3.8424428 H 9.0607294 V 1.5000001 Z M 10.97984,2.9082879 q -0.0254,-0.1072444 -0.104422,-0.1721554 -0.07902,-0.064911 -0.191911,-0.064911 -0.118534,0 -0.194734,0.062089 -0.07338,0.062089 -0.09313,0.1749776 z M 10.381529,3.204621 q 0,0.3301998 0.310444,0.3301998 0.166511,0 0.251178,-0.1354666 h 0.493888 q -0.149577,0.4967107 -0.747888,0.4967107 -0.183444,0 -0.335844,-0.053622 Q 10.200907,3.7859983 10.09084,3.6843984 9.9835961,3.5827985 9.9243294,3.4416875 9.8650628,3.3005765 9.8650628,3.1255988 q 0,-0.180622 0.056444,-0.3245553 0.056444,-0.1467554 0.1608668,-0.2483553 0.104422,-0.1016 0.251177,-0.1552221 0.149578,-0.056444 0.335845,-0.056444 0.183444,0 0.330199,0.056444 0.146756,0.053622 0.248356,0.1580443 0.1016,0.1044221 0.155222,0.256822 0.05362,0.1495777 0.05362,0.3386664 v 0.053622 z"
       id="path7" />
    <path
       style="font-weight:bold;font-size:2.82222px;line-height:1;font-family:Futura;-inkscape-font-specification:'Futura Bold';fill:#f9f9f9;stroke-width:0.4;stroke-linecap:round"
       d="m 2.0785552,5.6006859 q 0,0.1269999 0.047978,0.2342442 0.047978,0.1072444 0.1298221,0.1862666 0.081844,0.079022 0.1890888,0.1241776 0.1100666,0.042333 0.231422,0.042333 0.1213555,0 0.2285999,-0.042333 0.1100665,-0.045155 0.1919109,-0.1241776 0.084667,-0.079022 0.1326444,-0.1862666 0.047978,-0.1072443 0.047978,-0.2342442 0,-0.1269999 -0.047978,-0.2342443 Q 3.1820432,5.2591972 3.0973766,5.1801751 3.0155322,5.1011529 2.9054657,5.0588196 2.7982213,5.0136641 2.6768658,5.0136641 q -0.1213554,0 -0.231422,0.045155 Q 2.3381994,5.1011529 2.256355,5.1801751 2.1745106,5.2591972 2.1265329,5.3664416 2.0785552,5.473686 2.0785552,5.6006859 Z m -0.5785552,0 q 0,-0.2370665 0.087489,-0.4402664 0.087489,-0.206022 0.2427109,-0.3584219 0.1552221,-0.1523999 0.3697108,-0.2370665 0.217311,-0.087489 0.4769552,-0.087489 0.2568221,0 0.474133,0.087489 0.2173109,0.084667 0.3725331,0.2370665 0.1580443,0.1523999 0.2455331,0.3584219 0.087489,0.2031999 0.087489,0.4402664 0,0.2370665 -0.087489,0.4430885 -0.087489,0.2031999 -0.2455331,0.3555997 -0.1552222,0.1523999 -0.3725331,0.2398888 -0.2173109,0.084667 -0.474133,0.084667 -0.2596442,0 -0.4769552,-0.084667 Q 1.9854219,6.551774 1.8301998,6.3993741 1.6749777,6.2469743 1.5874889,6.0437744 1.5,5.8377524 1.5,5.6006859 Z M 5.118084,5.589397 q -0.141111,-0.073378 -0.2765776,-0.073378 -0.070556,0 -0.115711,0.028222 -0.042333,0.028222 -0.042333,0.0762 0,0.0254 0.00564,0.042333 0.00847,0.014111 0.031044,0.028222 0.0254,0.014111 0.070556,0.0254 0.047978,0.011289 0.1241777,0.028222 0.2116665,0.042333 0.3160887,0.1523999 0.1044221,0.1072443 0.1044221,0.2765775 0,0.1269999 -0.0508,0.2285999 -0.0508,0.1015999 -0.141111,0.1721554 -0.090311,0.067733 -0.217311,0.1044221 -0.1269999,0.039511 -0.2793998,0.039511 -0.2935109,0 -0.5785551,-0.166511 L 4.2544846,6.1905299 q 0.2144888,0.1467554 0.4063997,0.1467554 0.070556,0 0.115711,-0.031044 0.045156,-0.031044 0.045156,-0.079022 0,-0.028222 -0.00847,-0.045155 Q 4.8076398,6.1623077 4.785062,6.1481966 4.7624842,6.1312632 4.7173287,6.1199744 4.6749954,6.1058633 4.6044399,6.0917522 4.3673734,6.0437744 4.271418,5.9506412 4.1782847,5.8546857 4.1782847,5.6881747 q 0,-0.1213555 0.045155,-0.217311 0.045155,-0.098778 0.1298221,-0.1665109 0.084667,-0.067733 0.2031999,-0.1044222 0.1213554,-0.036689 0.2681109,-0.036689 0.2398887,0 0.4656663,0.093133 z m 1.5691568,0.095955 q -0.1326444,-0.090311 -0.2681109,-0.090311 -0.073378,0 -0.1382888,0.0254 -0.062089,0.0254 -0.1100666,0.073378 -0.047978,0.045155 -0.0762,0.1100666 -0.0254,0.062089 -0.0254,0.141111 0,0.0762 0.0254,0.141111 0.028222,0.062089 0.073378,0.1100666 0.047978,0.045155 0.1128888,0.070556 0.064911,0.0254 0.1382888,0.0254 0.1439332,0 0.2681109,-0.098778 V 6.627974 q -0.1890888,0.081844 -0.358422,0.081844 -0.1580443,0 -0.3019775,-0.053622 Q 5.8857303,6.602574 5.7756637,6.5037963 5.6684193,6.4021964 5.6035083,6.2639076 5.5385972,6.1227966 5.5385972,5.9506412 q 0,-0.1721555 0.062089,-0.3132665 0.062089,-0.1439332 0.1693332,-0.2455331 0.1072443,-0.1044222 0.2539998,-0.1608666 0.1495776,-0.059267 0.3189108,-0.059267 0.1862666,0 0.3443109,0.079022 z"
       id="path8" />
    <g
       id="text4"
       style="font-weight:bold;font-size:2.82222px;line-height:1;font-family:Futura;-inkscape-font-specification:'Futura, Bold';fill:#f9f9f9;stroke-width:0.4;stroke-linecap:round"
       inkscape:label="title"
       aria-label="Simple&#10;Osc">
      <path
         style="-inkscape-font-specification:'Futura Bold'"
         d="m 2.7643546,2.2591773 q -0.090311,-0.073378 -0.180622,-0.1072444 -0.090311,-0.036689 -0.1749777,-0.036689 -0.1072443,0 -0.1749776,0.0508 -0.067733,0.0508 -0.067733,0.1326444 0,0.056444 0.033867,0.093133 0.033867,0.036689 0.087489,0.064911 0.056444,0.0254 0.1241776,0.045155 0.070555,0.019756 0.1382888,0.042333 0.2709331,0.090311 0.3951108,0.2427109 0.1269999,0.1495777 0.1269999,0.3922886 0,0.1636888 -0.056444,0.2963331 Q 2.9619101,3.6081985 2.8546657,3.704154 2.7502435,3.7972872 2.5950214,3.8480872 2.4426216,3.9017094 2.2478884,3.9017094 1.8443109,3.9017094 1.5,3.6618207 L 1.7370665,3.2159099 q 0.1241777,0.1100666 0.2455332,0.1636888 0.1213554,0.053622 0.2398887,0.053622 0.1354666,0 0.2003776,-0.062089 0.067733,-0.062089 0.067733,-0.141111 0,-0.047978 -0.016933,-0.081844 Q 2.4567327,3.1114877 2.4172216,3.0832655 2.3777105,3.0522211 2.3127994,3.0268211 2.2507106,3.0014212 2.1603995,2.9703767 2.0531552,2.9365101 1.948733,2.896999 1.8471331,2.8546657 1.7652887,2.7869324 1.6862666,2.7191992 1.6354666,2.6175992 1.5874889,2.5131771 1.5874889,2.3551328 q 0,-0.1580444 0.0508,-0.2850443 0.053622,-0.1298221 0.1467555,-0.2201331 0.095956,-0.093133 0.231422,-0.1439333 0.1382888,-0.0508 0.307622,-0.0508 0.1580443,0 0.3301998,0.045155 0.1721554,0.042333 0.3301997,0.1269999 z m 1.117599,0.1354665 v 1.447799 H 3.3711318 V 2.3946438 Z M 3.3372651,1.8386665 q 0,-0.059267 0.022578,-0.1100666 0.022578,-0.053622 0.062089,-0.093133 0.039511,-0.039511 0.090311,-0.062089 Q 3.5658649,1.5508 3.6251316,1.5508 q 0.059267,0 0.1100666,0.022578 0.053622,0.022578 0.093133,0.062089 0.039511,0.039511 0.062089,0.093133 0.022578,0.0508 0.022578,0.1100666 0,0.059267 -0.022578,0.1128888 -0.022578,0.0508 -0.062089,0.090311 -0.039511,0.039511 -0.093133,0.062089 -0.0508,0.022578 -0.1100666,0.022578 -0.059267,0 -0.1128888,-0.022578 -0.0508,-0.022578 -0.090311,-0.062089 -0.039511,-0.039511 -0.062089,-0.090311 -0.022578,-0.053622 -0.022578,-0.1128888 z M 4.2319096,2.3946438 H 4.7427315 V 2.5724437 Q 4.9515757,2.3720661 5.21122,2.3720661 q 0.3217331,0 0.4910663,0.2709331 0.1721554,-0.2737553 0.4910663,-0.2737553 0.1015999,0 0.1919109,0.031044 0.090311,0.028222 0.1552221,0.093133 0.064911,0.062089 0.1016,0.1636888 0.039511,0.1015999 0.039511,0.2455332 V 3.8424428 H 6.1707748 V 3.1284211 q 0,-0.1100666 -0.016933,-0.1806221 -0.014111,-0.070555 -0.045156,-0.1100666 -0.028222,-0.039511 -0.067733,-0.053622 -0.039511,-0.014111 -0.084667,-0.014111 -0.2455332,0 -0.2455332,0.358422 V 3.8424428 H 5.1999311 V 3.1284211 q 0,-0.1100666 -0.014111,-0.1806221 -0.014111,-0.073378 -0.042333,-0.115711 -0.0254,-0.042333 -0.067733,-0.056444 -0.042333,-0.016933 -0.098778,-0.016933 -0.047978,0 -0.090311,0.014111 -0.042333,0.014111 -0.0762,0.056444 -0.031044,0.039511 -0.0508,0.1128888 -0.016933,0.070556 -0.016933,0.1862666 V 3.8424428 H 4.2319096 Z m 4.0047309,0.7281328 q 0,-0.067733 -0.0254,-0.1269999 -0.022578,-0.062089 -0.067733,-0.1072443 -0.045156,-0.045156 -0.1072444,-0.070555 -0.059267,-0.028222 -0.1298221,-0.028222 -0.067733,0 -0.1269999,0.0254 -0.059267,0.0254 -0.1044222,0.070555 -0.042333,0.045156 -0.070556,0.1072444 -0.0254,0.059267 -0.0254,0.1269999 0,0.067733 0.0254,0.1269999 0.0254,0.059267 0.070556,0.1044222 0.045155,0.042333 0.1044222,0.070555 0.062089,0.0254 0.1298221,0.0254 0.067733,0 0.1269999,-0.0254 0.059267,-0.0254 0.1015999,-0.070555 0.045155,-0.045156 0.070555,-0.1044222 0.028222,-0.059267 0.028222,-0.1241777 z M 7.5931743,4.5649311 H 7.0823525 V 2.3946438 h 0.5108218 v 0.1608666 q 0.1636888,-0.2060221 0.4459108,-0.2060221 0.1552221,0 0.2878665,0.062089 0.1354665,0.059267 0.2342442,0.1636887 0.098778,0.1044222 0.1523999,0.2455332 0.056444,0.141111 0.056444,0.3019775 0,0.1608666 -0.056444,0.2991554 -0.053622,0.1382887 -0.1523999,0.2427109 -0.095956,0.1044221 -0.2285998,0.1636888 -0.1326443,0.059267 -0.2878664,0.059267 -0.2709332,0 -0.4515553,-0.1862666 z M 9.5715512,1.5000001 V 3.8424428 H 9.0607294 V 1.5000001 Z M 10.97984,2.9082879 q -0.0254,-0.1072444 -0.104422,-0.1721554 -0.07902,-0.064911 -0.191911,-0.064911 -0.118534,0 -0.194734,0.062089 -0.07338,0.062089 -0.09313,0.1749776 z M 10.381529,3.204621 q 0,0.3301998 0.310444,0.3301998 0.166511,0 0.251178,-0.1354666 h 0.493888 q -0.149577,0.4967107 -0.747888,0.4967107 -0.183444,0 -0.335844,-0.053622 Q 10.200907,3.7859983 10.09084,3.6843984 9.9835961,3.5827985 9.9243294,3.4416875 9.8650628,3.3005765 9.8650628,3.1255988 q 0,-0.180622 0.056444,-0.3245553 0.056444,-0.1467554 0.1608668,-0.2483553 0.104422,-0.1016 0.251177,-0.1552221 0.149578,-0.056444 0.335845,-0.056444 0.183444,0 0.330199,0.056444 0.146756,0.053622 0.248356,0.1580443 0.1016,0.1044221 0.155222,0.256822 0.05362,0.1495777 0.05362,0.3386664 v 0.053622 z"
         id="path9" />
      <path
         style="-inkscape-font-specification:'Futura Bold'"
         d="m 2.0785552,5.6006859 q 0,0.1269999 0.047978,0.2342442 0.047978,0.1072444 0.1298221,0.1862666 0.081844,0.079022 0.1890888,0.1241776 0.1100666,0.042333 0.231422,0.042333 0.1213555,0 0.2285999,-0.042333 0.1100665,-0.045155 0.1919109,-0.1241776 0.084667,-0.079022 0.1326444,-0.1862666 0.047978,-0.1072443 0.047978,-0.2342442 0,-0.1269999 -0.047978,-0.2342443 Q 3.1820432,5.2591972 3.0973766,5.1801751 3.0155322,5.1011529 2.9054657,5.0588196 2.7982213,5.0136641 2.6768658,5.0136641 q -0.1213554,0 -0.231422,0.045155 Q 2.3381994,5.1011529 2.256355,5.1801751 2.1745106,5.2591972 2.1265329,5.3664416 2.0785552,5.473686 2.0785552,5.6006859 Z m -0.5785552,0 q 0,-0.2370665 0.087489,-0.4402664 0.087489,-0.206022 0.2427109,-0.3584219 0.1552221,-0.1523999 0.3697108,-0.2370665 0.217311,-0.087489 0.4769552,-0.087489 0.2568221,0 0.474133,0.087489 0.2173109,0.084667 0.3725331,0.2370665 0.1580443,0.1523999 0.2455331,0.3584219 0.087489,0.2031999 0.087489,0.4402664 0,0.2370665 -0.087489,0.4430885 -0.087489,0.2031999 -0.2455331,0.3555997 -0.1552222,0.1523999 -0.3725331,0.2398888 -0.2173109,0.084667 -0.474133,0.084667 -0.2596442,0 -0.4769552,-0.084667 Q 1.9854219,6.551774 1.8301998,6.3993741 1.6749777,6.2469743 1.5874889,6.0437744 1.5,5.8377524 1.5,5.6006859 Z M 5.118084,5.589397 q -0.141111,-0.073378 -0.2765776,-0.073378 -0.070556,0 -0.115711,0.028222 -0.042333,0.028222 -0.042333,0.0762 0,0.0254 0.00564,0.042333 0.00847,0.014111 0.031044,0.028222 0.0254,0.014111 0.070556,0.0254 0.047978,0.011289 0.1241777,0.028222 0.2116665,0.042333 0.3160887,0.1523999 0.1044221,0.1072443 0.1044221,0.2765775 0,0.1269999 -0.0508,0.2285999 -0.0508,0.1015999 -0.141111,0.1721554 -0.090311,0.067733 -0.217311,0.1044221 -0.1269999,0.039511 -0.2793998,0.039511 -0.2935109,0 -0.5785551,-0.166511 L 4.2544846,6.1905299 q 0.2144888,0.1467554 0.4063997,0.1467554 0.070556,0 0.115711,-0.031044 0.045156,-0.031044 0.045156,-0.079022 0,-0.028222 -0.00847,-0.045155 Q 4.8076398,6.1623077 4.785062,6.1481966 4.7624842,6.1312632 4.7173287,6.1199744 4.6749954,6.1058633 4.6044399,6.0917522 4.3673734,6.0437744 4.271418,5.9506412 4.1782847,5.8546857 4.1782847,5.6881747 q 0,-0.1213555 0.045155,-0.217311 0.045155,-0.098778 0.1298221,-0.1665109 0.084667,-0.067733 0.2031999,-0.1044222 0.1213554,-0.036689 0.2681109,-0.036689 0.2398887,0 0.4656663,0.093133 z m 1.5691568,0.095955 q -0.1326444,-0.090311 -0.2681109,-0.090311 -0.073378,0 -0.1382888,0.0254 -0.062089,0.0254 -0.1100666,0.073378 -0.047978,0.045155 -0.0762,0.1100666 -0.0254,0.062089 -0.0254,0.141111 0,0.0762 0.0254,0.141111 0.028222,0.062089 0.073378,0.1100666 0.047978,0.045155 0.1128888,0.070556 0.064911,0.0254 0.1382888,0.0254 0.1439332,0 0.2681109,-0.098778 V 6.627974 q -0.1890888,0.081844 -0.358422,0.081844 -0.1580443,0 -0.3019775,-0.053622 Q 5.8857303,6.602574 5.7756637,6.5037963 5.6684193,6.4021964 5.6035083,6.2639076 5.5385972,6.1227966 5.5385972,5.9506412 q 0,-0.1721555 0.062089,-0.3132665 0.062089,-0.1439332 0.1693332,-0.2455331 0.1072443,-0.1044222 0.2539998,-0.1608666 0.1495776,-0.059267 0.3189108,-0.059267 0.1862666,0 0.3443109,0.079022 z"
         id="path10" />
    </g>
    <path
       style="font-weight:500;font-size:2.82222px;line-height:1;font-family:Futura;-inkscape-font-specification:'Futura Medium';fill:#f9f9f9;stroke-width:0.4;stroke-linecap:round"
       d="M 6.0643727,20.30179 H 5.3229888 v 0.511252 H 6.03819 v 0.30179 H 5.3229888 v 1.012857 H 5.0019061 V 20 h 1.0624666 z m 0.2852538,0.483691 h 0.3100583 v 0.119889 q 0.085438,-0.08957 0.1515841,-0.122645 0.067524,-0.03445 0.1598523,-0.03445 0.1226453,0 0.2563149,0.07993 l -0.1419378,0.283876 q -0.088194,-0.06339 -0.1722546,-0.06339 -0.2535589,0 -0.2535589,0.383095 v 0.695908 H 6.3496265 Z m 2.2586029,0.74414 H 7.6463595 q 0.012402,0.165365 0.1074869,0.263205 0.095085,0.09646 0.2439125,0.09646 0.1157552,0 0.1915472,-0.05512 0.074414,-0.05512 0.1694986,-0.203949 l 0.261827,0.146072 q -0.060634,0.103353 -0.1281574,0.177767 -0.067524,0.07304 -0.1446939,0.121267 -0.07717,0.04685 -0.1667425,0.0689 -0.089572,0.02205 -0.1943032,0.02205 -0.3004121,0 -0.4823131,-0.192925 -0.1819009,-0.194303 -0.1819009,-0.515386 0,-0.318326 0.1763888,-0.515386 0.1777668,-0.194303 0.4712887,-0.194303 0.296278,0 0.4685326,0.188791 0.1708766,0.187413 0.1708766,0.51952 z M 8.2899028,21.276062 q -0.064768,-0.248046 -0.3128144,-0.248046 -0.0565,0 -0.1061089,0.01791 -0.049609,0.01654 -0.09095,0.04961 -0.039963,0.03169 -0.068902,0.07717 -0.028939,0.04547 -0.044097,0.103352 z m 1.6467546,1.581987 v -0.880566 q -0.184657,0.188791 -0.4216794,0.188791 -0.2714733,0 -0.4506181,-0.199815 -0.1805229,-0.201193 -0.1805229,-0.502984 0,-0.305924 0.1805229,-0.511251 0.1819009,-0.20395 0.4561303,-0.20395 0.2328882,0 0.4161672,0.183279 v -0.146072 h 0.3114366 v 2.072568 z M 9.2007855,21.449695 q 0,0.194303 0.1047309,0.315571 0.1047308,0.124023 0.2659611,0.124023 0.1708766,0 0.2769855,-0.118511 0.1074869,-0.119889 0.1074869,-0.311437 0,-0.188791 -0.1061089,-0.311436 -0.1061088,-0.119889 -0.2756074,-0.119889 -0.1598523,0 -0.2673392,0.121267 -0.1061089,0.122645 -0.1061089,0.300412 z"
       id="text5"
       inkscape:label="label-freq"
       aria-label="Freq" />
    <path
       style="font-weight:500;font-size:2.82222px;line-height:1;font-family:Futura;-inkscape-font-specification:'Futura Medium';fill:#f9f9f9;stroke-width:0.4;stroke-linecap:round"
       d="m 5.2912941,111.09417 q 0,-0.44924 0.3293509,-0.7717 0.3279728,-0.32246 0.7882372,-0.32246 0.4547523,0 0.779969,0.32522 0.3265948,0.32521 0.3265948,0.78134 0,0.45889 -0.3279728,0.7786 -0.3293509,0.32108 -0.7951274,0.32108 -0.4120331,0 -0.740006,-0.28526 -0.3610457,-0.31557 -0.3610457,-0.82682 z m 0.3238387,0.004 q 0,0.35277 0.2370224,0.58015 0.2356444,0.22738 0.5443247,0.22738 0.334863,0 0.5649952,-0.23151 0.2301322,-0.23427 0.2301322,-0.57051 0,-0.34038 -0.2273761,-0.57051 -0.2259981,-0.23151 -0.5594831,-0.23151 -0.332107,0 -0.5608611,0.23151 -0.2287542,0.22876 -0.2287542,0.565 z m 2.5548808,-0.27285 v 0.77032 q 0,0.33348 0.2632051,0.33348 0.2632051,0 0.2632051,-0.33348 v -0.77032 h 0.3100584 v 0.77721 q 0,0.16123 -0.039963,0.27836 -0.038585,0.10473 -0.1336696,0.18879 -0.1570963,0.13643 -0.3996308,0.13643 -0.2411565,0 -0.3982527,-0.13643 -0.096463,-0.0841 -0.1364257,-0.18879 -0.038585,-0.0937 -0.038585,-0.27836 v -0.77721 z m 1.5475355,0.28938 v 1.05282 H 9.4074908 v -1.05282 H 9.2751992 v -0.28938 h 0.1322916 v -0.49196 h 0.3100583 v 0.49196 h 0.2411565 v 0.28938 z"
       id="text6"
       inkscape:label="label-out"
       aria-label="Out" />
    <path
       style="font-weight:bold;font-size:2.82222px;line-height:1;font-family:Futura;-inkscape-font-specification:'Futura Bold';fill:#f9f9f9;stroke-width:0.4;stroke-linecap:round"
       d="m 3.5934589,125.71476 0.3612442,-2.12795 h 0.5475107 l 0.4261552,1.13453 0.4233331,-1.13453 h 0.5475107 l 0.3612441,2.12795 H 5.710124 l -0.1834443,-1.22484 -0.5023552,1.22484 H 4.8041914 l -0.4769552,-1.22484 -0.1834443,1.22484 z m 2.9209974,0 0.3612442,-2.12795 h 0.5475107 l 0.4261552,1.13453 0.423333,-1.13453 h 0.5475107 l 0.3612442,2.12795 H 8.6311214 l -0.1834443,-1.22484 -0.5023552,1.22484 H 7.7251887 l -0.4769552,-1.22484 -0.1834443,1.22484 z m 3.0169529,0 v -2.12795 h 0.5531548 l 1.021644,1.30104 v -1.30104 h 0.550333 v 2.12795 h -0.550333 l -1.021644,-1.30104 v 1.30104 z"
       id="text7"
       inkscape:label="brand"
       aria-label="MMN" />
  </g>
  <g
     inkscape:groupmode="layer"
     id="layer2"
     inkscape:label="text"
     style="display:none">
    <text
       xml:space="preserve"
       style="font-style:normal;font-variant:normal;font-weight:bold;font-stretch:normal;font-size:2.82222px;line-height:1;font-family:Futura;-inkscape-font-specification:'Futura, Bold';font-variant-ligatures:normal;font-variant-caps:normal;font-variant-numeric:normal;font-variant-east-asian:normal;text-align:start;writing-mode:lr-tb;direction:ltr;text-anchor:start;fill:#f9f9f9;stroke:none;stroke-width:0.4;stroke-linecap:round"
       x="1.3730001"
       y="3.8424428"
       id="text1"
       inkscape:label="title"><tspan
         sodipodi:role="line"
         id="tspan1"
         style="font-style:normal;font-variant:normal;font-weight:bold;font-stretch:normal;font-size:2.82222px;line-height:1;font-family:Futura;-inkscape-font-specification:'Futura Bold';font-variant-ligatures:normal;font-variant-caps:normal;font-variant-numeric:normal;font-variant-east-asian:normal;fill:#f9f9f9;stroke-width:0.4"
         x="1.3730001"
         y="3.8424428">Simple</tspan><tspan
         sodipodi:role="line"
         style="font-style:normal;font-variant:normal;font-weight:bold;font-stretch:normal;font-size:2.82222px;line-height:1;font-family:Futura;-inkscape-font-specification:'Futura Bold';font-variant-ligatures:normal;font-variant-caps:normal;font-variant-numeric:normal;font-variant-east-asian:normal;fill:#f9f9f9;stroke-width:0.4"
         x="1.3730001"
         y="6.6646628"
         id="tspan2">Osc</tspan></text>
    <text
       xml:space="preserve"
       style="font-style:normal;font-variant:normal;font-weight:bold;font-stretch:normal;font-size:2.82222px;line-height:1;font-family:Futura;-inkscape-font-specification:'Futura, Bold';font-variant-ligatures:normal;font-variant-caps:normal;font-variant-numeric:normal;font-variant-east-asian:normal;text-align:start;writing-mode:lr-tb;direction:ltr;text-anchor:start;fill:#f9f9f9;stroke:none;stroke-width:0.4;stroke-linecap:round"
       x="4.7469692"
       y="22.127689"
       id="text1-9"
       inkscape:label="label-freq"><tspan
         sodipodi:role="line"
         style="font-style:normal;font-variant:normal;font-weight:500;font-stretch:normal;font-size:2.82222px;line-height:1;font-family:Futura;-inkscape-font-specification:'Futura Medium';font-variant-ligatures:normal;font-variant-caps:normal;font-variant-numeric:normal;font-variant-east-asian:normal;fill:#f9f9f9;stroke-width:0.4"
         x="4.7469692"
         y="22.127689"
         id="tspan2-6">Freq</tspan></text>
    <text
       xml:space="preserve"
       style="font-style:normal;font-variant:normal;font-weight:bold;font-stretch:normal;font-size:2.82222px;line-height:1;font-family:Futura;-inkscape-font-specification:'Futura, Bold';font-variant-ligatures:normal;font-variant-caps:normal;font-variant-numeric:normal;font-variant-east-asian:normal;text-align:start;writing-mode:lr-tb;direction:ltr;text-anchor:start;fill:#f9f9f9;stroke:none;stroke-width:0.4;stroke-linecap:round"
       x="5.1424661"
       y="112.16766"
       id="text1-9-1"
       inkscape:label="label-out"><tspan
         sodipodi:role="line"
         style="font-style:normal;font-variant:normal;font-weight:500;font-stretch:normal;font-size:2.82222px;line-height:1;font-family:Futura;-inkscape-font-specification:'Futura Medium';font-variant-ligatures:normal;font-variant-caps:normal;font-variant-numeric:normal;font-variant-east-asian:normal;fill:#f9f9f9;stroke-width:0.4"
         x="5.1424661"
         y="112.16766"
         id="tspan2-6-5">Out</tspan></text>
    <text
       xml:space="preserve"
       style="font-style:normal;font-variant:normal;font-weight:bold;font-stretch:normal;font-size:2.82222px;line-height:1;font-family:Futura;-inkscape-font-specification:'Futura, Bold';font-variant-ligatures:normal;font-variant-caps:normal;font-variant-numeric:normal;font-variant-east-asian:normal;text-align:start;writing-mode:lr-tb;direction:ltr;text-anchor:start;fill:#f9f9f9;stroke:none;stroke-width:0.4;stroke-linecap:round"
       x="3.466459"
       y="125.71476"
       id="text1-1"
       inkscape:label="brand"><tspan
         sodipodi:role="line"
         style="font-style:normal;font-variant:normal;font-weight:bold;font-stretch:normal;font-size:2.82222px;line-height:1;font-family:Futura;-inkscape-font-specification:'Futura Bold';font-variant-ligatures:normal;font-variant-caps:normal;font-variant-numeric:normal;font-variant-east-asian:normal;fill:#f9f9f9;stroke-width:0.4"
         x="3.466459"
         y="125.71476"
         id="tspan2-9">MMN</tspan></text>
  </g>
  <g
     inkscape:label="components"
     inkscape:groupmode="layer"
     id="layer1"
     style="display:none">
    <circle
       style="fill:#ff0000;stroke:none;stroke-width:0.4;stroke-linecap:round"
       id="freq"
       cx="7.625"
       cy="14"
       r="4"
       inkscape:label="freq">
      <title
         id="title6">freq</title>
    </circle>
    <circle
       style="fill:#0000ff;stroke:none;stroke-width:0.4;stroke-linecap:round"
       id="out"
       cx="7.625"
       cy="104"
       r="4"
       inkscape:label="out">
      <title
         id="title5">out</title>
    </circle>
  </g>
</svg>
